<svg xmlns="http://www.w3.org/2000/svg" viewBox="0 0 138.18 33.19"><defs><style>.cls-1{fill:#ff153c;}</style></defs><g id="Layer_2" data-name="Layer 2"><g id="Layer_3" data-name="Layer 3"><path class="cls-1" d="M0,.83H7.41L18.05,20V.83h7.4V32.4h-7.4L7.41,12.91V32.4H0Z"/><path class="cls-1" d="M24.38,16.56A17.83,17.83,0,0,1,25.59,9.9a16,16,0,0,1,3.28-5.27,14.83,14.83,0,0,1,4.91-3.4A15.9,15.9,0,0,1,40,0,16.17,16.17,0,0,1,46.2,1.23a16.12,16.12,0,0,1,4.95,3.4A17.09,17.09,0,0,1,54.39,9.9a19.33,19.33,0,0,1,1.14,6.66,19,19,0,0,1-1.14,6.69,16.19,16.19,0,0,1-3.24,5.27A15.59,15.59,0,0,1,46.2,32,16.17,16.17,0,0,1,40,33.19,15.89,15.89,0,0,1,33.78,32a14.39,14.39,0,0,1-4.91-3.45,15.17,15.17,0,0,1-3.28-5.27A17.59,17.59,0,0,1,24.38,16.56Zm7.41,0a11.56,11.56,0,0,0,.6,4A8.8,8.8,0,0,0,34,23.65a7.26,7.26,0,0,0,2.6,2,7.17,7.17,0,0,0,3.34.75,7.61,7.61,0,0,0,3.39-.75,7.48,7.48,0,0,0,2.56-2,9.93,9.93,0,0,0,1.67-3.13,13.57,13.57,0,0,0,.57-4,13.32,13.32,0,0,0-.57-3.88,10.16,10.16,0,0,0-1.67-3.09,7.85,7.85,0,0,0-2.56-2.06A8,8,0,0,0,40,6.81,7.42,7.42,0,0,0,34,9.59a9,9,0,0,0-1.64,3.09A11.32,11.32,0,0,0,31.79,16.56Z"/><path class="cls-1" d="M55.1,16.56A18,18,0,0,1,56.31,9.9a16.12,16.12,0,0,1,3.28-5.27,14.83,14.83,0,0,1,4.91-3.4A15.91,15.91,0,0,1,70.7,0a16.16,16.16,0,0,1,6.22,1.23,16.12,16.12,0,0,1,5,3.4A16.9,16.9,0,0,1,85.11,9.9a19.33,19.33,0,0,1,1.14,6.66,19,19,0,0,1-1.14,6.69,16,16,0,0,1-3.24,5.27,15.59,15.59,0,0,1-5,3.45,16.15,16.15,0,0,1-6.22,1.22A15.91,15.91,0,0,1,64.5,32a14.39,14.39,0,0,1-4.91-3.45,15.32,15.32,0,0,1-3.28-5.27A17.78,17.78,0,0,1,55.1,16.56Zm7.41,0a11.8,11.8,0,0,0,.6,4,8.8,8.8,0,0,0,1.64,3.13,7.7,7.7,0,0,0,6,2.77,7.54,7.54,0,0,0,5.94-2.77,9.93,9.93,0,0,0,1.67-3.13,13.57,13.57,0,0,0,.57-4,13.32,13.32,0,0,0-.57-3.88,10.16,10.16,0,0,0-1.67-3.09,7.85,7.85,0,0,0-2.56-2.06,8,8,0,0,0-3.38-.72,7.42,7.42,0,0,0-6,2.78,9,9,0,0,0-1.64,3.09A11.57,11.57,0,0,0,62.51,16.56Z"/><path class="cls-1" d="M85.25.83h7.4L103.3,20V.83h7.4V32.4h-7.4L92.65,12.91V32.4h-7.4Z"/><path class="cls-1" d="M109.63,32.4,119.24.83h9.33l9.61,31.57h-7.41l-2.7-8.83-9.19,2.81-1.85,6Zm11.53-13.51,5-1.54L123.9,9.94Z"/></g></g></svg>